# xmcd
#
# Track frame offsets: 
#        150
#        18867
#        36177
#        53296
#        72705
#        84958
#        102977
#        117006
#        134015
#        151853
#        168795
#        183238
#        229899
#
# Disc length: 3069 seconds
#
# Revision: 5
# Processed by: cddbd v1.5.2PL0 Copyright (c) Steve Scherf et al.
# Submitted via: ExactAudioCopy v0.99pb4
#
DISCID=9b0bfb0d
DTITLE=Boy Sets Fire - Tomorrow Come Today
DYEAR=2003
DGENRE=Hardcore
TTITLE0=Eviction Article
TTITLE1=Last Year's Nest
TTITLE2=Full Color Guilt
TTITLE3=Bathory's Sainthood
TTITLE4=Dying On Principle
TTITLE5=Handful of Redemption
TTITLE6=Release the Dogs
TTITLE7=Foundations to Burn
TTITLE8=Management Vs. Labor
TTITLE9=High Wire Escape Artist
TTITLE10=White Wedding Dress
TTITLE11=On in Five
TTITLE12=With Every Intention (Bonus Track)
EXTD=
EXTT0=
EXTT1=
EXTT2=
EXTT3=
EXTT4=
EXTT5=
EXTT6=
EXTT7=
EXTT8=
EXTT9=
EXTT10=
EXTT11=
EXTT12=
PLAYORDER=
